<?xml version="1.0" encoding="utf-8"?>
<!-- Generator: Adobe Illustrator 16.0.0, SVG Export Plug-In . SVG Version: 6.00 Build 0)  -->
<!DOCTYPE svg PUBLIC "-//W3C//DTD SVG 1.1//EN" "http://www.w3.org/Graphics/SVG/1.1/DTD/svg11.dtd">
<svg version="1.1" id="Layer_1" xmlns="http://www.w3.org/2000/svg" xmlns:xlink="http://www.w3.org/1999/xlink" x="0px" y="0px"
	 width="297px" height="297px" viewBox="0 0 297 297" enable-background="new 0 0 297 297" xml:space="preserve">
<rect fill="#FFFFFF" width="297" height="297"/>
<rect fill="none" width="297" height="297"/>
<path d="M211.728,145.892c-1.608-0.837-3.181-1.467-4.668-1.87c-1.587-0.437-3.185-0.659-4.736-0.659
	c-5.196,0-9.621,1.584-13.14,4.702c-3.528,3.128-5.319,7.048-5.319,11.646c0,4.307,1.67,7.939,4.965,10.799
	c3.274,2.836,7.423,4.277,12.33,4.277c3.354,0,6.338-0.623,8.87-1.857c2.34-1.139,4.381-2.83,6.079-5.035
	c0.96,1.705,2.103,2.994,3.399,3.846c1.462,0.947,3.253,1.428,5.331,1.428c2.536,0,4.764-0.725,6.621-2.172
	c1.883-1.477,2.836-3.16,2.836-5c0-0.408-0.086-0.711-0.253-0.932c-0.138-0.188-0.396-0.408-0.861-0.408
	c-0.29,0-0.713,0.129-2.117,1.676c-0.845,0.932-1.956,1.383-3.386,1.383c-0.799,0-1.375-0.172-1.715-0.516
	c-0.24-0.244-0.577-0.794-0.781-2.049l-3.622-26.184c-0.788-5.226-2.178-8.891-4.127-10.892c-1.967-2.027-5.029-3.058-9.105-3.058
	c-2.816,0-5.475,0.441-7.906,1.305c-2.422,0.869-4.976,2.292-7.591,4.234c-1.322,0.976-2.422,2.014-3.281,3.082
	c-0.925,1.147-1.348,1.94-1.348,2.504c0,0.42,0.162,0.8,0.487,1.129c0.323,0.321,0.734,0.491,1.186,0.491
	c0.227,0,0.556-0.09,1.799-1.168c3.683-3.245,7.379-4.891,10.994-4.891c3.163,0,5.427,1.063,6.932,3.25
	c1.516,2.209,2.285,5.715,2.285,10.419v0.393L211.728,145.892z M213.443,153.451l1.057,5.996c0.036,0.215,0.064,0.416,0.079,0.631
	c0.015,0.221,0.028,0.566,0.028,1.023c0,2.674-0.917,4.852-2.809,6.65c-1.87,1.783-4.249,2.686-7.082,2.686
	c-2.963,0-5.34-1.004-7.082-2.988c-1.752-1.998-2.64-4.75-2.64-8.182c0-3.654,0.888-6.555,2.646-8.629
	c1.763-2.08,4.112-3.094,7.187-3.094c2.371,0,4.374,0.545,5.939,1.615C212.329,150.23,213.203,151.631,213.443,153.451
	 M16.443,280.557h264.113V16.444H16.443V280.557z M276.496,276.496H20.507V20.508h255.989V276.496z M148.5,261.592
	c62.361,0,113.096-50.732,113.096-113.094S210.86,35.404,148.5,35.404c-62.362,0-113.095,50.733-113.095,113.094
	S86.138,261.592,148.5,261.592 M148.5,39.466c60.119,0,109.031,48.912,109.031,109.032c0,60.119-48.912,109.032-109.031,109.032
	c-60.123,0-109.033-48.913-109.033-109.032C39.466,88.378,88.376,39.466,148.5,39.466 M155.139,145.892
	c-1.609-0.837-3.182-1.467-4.672-1.87c-1.587-0.437-3.18-0.659-4.73-0.659c-5.203,0-9.625,1.584-13.142,4.702
	c-3.53,3.128-5.323,7.048-5.323,11.646c0,4.307,1.673,7.939,4.968,10.799c3.271,2.836,7.42,4.277,12.329,4.277
	c3.351,0,6.339-0.623,8.868-1.857c2.343-1.139,4.381-2.83,6.083-5.035c0.96,1.705,2.103,2.994,3.399,3.846
	c1.462,0.947,3.253,1.428,5.334,1.428c2.532,0,4.761-0.725,6.616-2.172c1.885-1.477,2.837-3.16,2.837-5
	c0-0.408-0.086-0.711-0.254-0.932c-0.137-0.188-0.397-0.408-0.864-0.408c-0.286,0-0.708,0.129-2.113,1.676
	c-0.848,0.932-1.955,1.383-3.389,1.383c-0.795,0-1.375-0.172-1.712-0.516c-0.24-0.244-0.58-0.794-0.784-2.049l-3.618-26.184
	c-0.789-5.226-2.178-8.891-4.128-10.892c-1.966-2.027-5.028-3.058-9.105-3.058c-2.816,0-5.475,0.441-7.905,1.305
	c-2.424,0.869-4.979,2.292-7.591,4.234c-1.321,0.976-2.424,2.014-3.284,3.082c-0.92,1.147-1.349,1.94-1.349,2.504
	c0,0.42,0.167,0.8,0.491,1.129c0.324,0.321,0.734,0.491,1.186,0.491c0.226,0,0.553-0.09,1.798-1.168
	c3.679-3.245,7.375-4.891,10.987-4.891c3.167,0,5.435,1.063,6.936,3.25c1.519,2.209,2.286,5.715,2.286,10.419v0.393L155.139,145.892
	z M156.854,153.451l1.057,5.996c0.036,0.215,0.064,0.416,0.078,0.631c0.015,0.221,0.025,0.566,0.025,1.023
	c0,2.674-0.917,4.852-2.805,6.65c-1.87,1.783-4.245,2.686-7.083,2.686c-2.962,0-5.343-1.004-7.082-2.988
	c-1.753-1.998-2.642-4.75-2.642-8.182c0-3.654,0.892-6.555,2.649-8.629c1.761-2.08,4.113-3.094,7.184-3.094
	c2.373,0,4.376,0.545,5.941,1.615C155.736,150.23,156.614,151.631,156.854,153.451 M87.681,191.473
	c0.415-0.293,0.638-0.717,0.638-1.24c0-1.074-1.341-1.711-2.356-2.092c-0.615-0.215-1.102-0.416-1.455-0.594
	c-1.071-0.516-1.794-1.061-2.154-1.619c-0.356-0.553-0.54-1.311-0.54-2.25v-13.943c1.788,1.549,3.746,2.752,5.827,3.604
	c2.377,0.961,4.98,1.449,7.731,1.449c5.997,0,11.105-2.309,15.178-6.85c4.061-4.527,6.12-10.195,6.12-16.842
	c0-7.448-2.085-13.716-6.193-18.632c-4.128-4.942-9.323-7.447-15.44-7.447c-2.232,0-4.51,0.43-6.772,1.28
	c-2.152,0.806-4.352,2.019-6.549,3.603l0.098-2.928c0-0.582-0.104-1.026-0.32-1.355c-0.315-0.494-0.727-0.6-1.021-0.6
	c-0.277,0-0.56,0.099-0.809,0.271l-12.365,5.32c-0.637,0.254-1.037,0.487-1.248,0.728c-0.248,0.266-0.371,0.63-0.371,1.081
	c0,1.197,1.729,1.591,2.291,1.718c0.9,0.218,1.65,0.439,2.228,0.653c0.611,0.226,1.049,0.545,1.305,0.955
	c0.264,0.429,0.402,1.03,0.402,1.789v46.146c0,0.939-0.179,1.697-0.535,2.25c-0.365,0.559-1.108,1.125-2.198,1.668
	c-0.328,0.145-0.839,0.346-1.524,0.604c-1.533,0.551-2.308,1.211-2.356,2.084c0.052,0.508,0.318,0.924,0.769,1.197
	c0.413,0.25,0.906,0.371,1.517,0.371h18.566C86.791,191.852,87.306,191.723,87.681,191.473 M81.813,140.259
	c0-3.231,1.114-5.986,3.313-8.188c2.205-2.199,4.919-3.315,8.076-3.315c3.867,0,6.939,1.609,9.136,4.784
	c2.236,3.222,3.368,7.745,3.368,13.445c0,6.765-1.379,12.211-4.095,16.203c-2.677,3.926-6.31,5.918-10.795,5.918
	c-3.064,0-5.358-0.639-6.826-1.898c-1.444-1.232-2.177-3.182-2.177-5.768V140.259z"/>
</svg>
